<svg xmlns="http://www.w3.org/2000/svg" viewBox="0 0 346.05 216.37"><defs><style>.cls-1{fill:#eee;}</style></defs><g id="Layer_2" data-name="Layer 2"><g id="Layer_1-2" data-name="Layer 1"><polygon points="223.72 200.82 306.35 118.19 1 118.19 1 98.19 306.35 98.19 223.72 15.56 237.86 1.41 344.64 108.19 237.86 214.96 223.72 200.82"/><path class="cls-1" d="M237.86,2.83,343.22,108.19,237.86,213.55l-12.72-12.73,83.63-83.63H2v-18H308.77L225.14,15.56,237.86,2.83m0-2.83-1.41,1.41L223.72,14.14l-1.41,1.42L223.72,17l80.22,80.22H0v22H303.94L223.72,199.4l-1.41,1.42,1.41,1.41L236.45,215l1.41,1.41,1.42-1.41L344.64,109.6l1.41-1.41-1.41-1.42L239.28,1.41,237.86,0Z"/></g></g></svg>