<svg xmlns="http://www.w3.org/2000/svg" viewBox="0 0 346.05 216.37"><defs><style>.cls-1{fill:#eee;}</style></defs><g id="Layer_2" data-name="Layer 2"><g id="Layer_1-2" data-name="Layer 1"><polygon points="1.41 108.19 108.19 1.41 122.33 15.56 39.7 98.19 345.05 98.19 345.05 118.19 39.7 118.19 122.33 200.82 108.19 214.96 1.41 108.19"/><path class="cls-1" d="M108.19,2.83l12.72,12.73L37.28,99.19H344.05v18H37.28l83.63,83.63-12.72,12.73L2.83,108.19,108.19,2.83m0-2.83-1.42,1.41L1.41,106.77,0,108.19l1.41,1.41L106.77,215l1.42,1.41L109.6,215l12.73-12.73,1.41-1.41-1.41-1.42L42.11,119.19H346.05v-22H42.11L122.33,17l1.41-1.41-1.41-1.42L109.6,1.41,108.19,0Z"/></g></g></svg>