<svg xmlns="http://www.w3.org/2000/svg" viewBox="0 0 221.03 216.31"><defs><style>.cls-1{fill:#eee;}</style></defs><g id="Layer_2" data-name="Layer 2"><g id="Layer_1-2" data-name="Layer 1"><polygon points="110.52 122.28 15.87 214.91 1.43 200.79 96.08 108.16 1.43 15.53 15.87 1.4 110.52 94.03 205.17 1.4 219.6 15.53 124.95 108.16 219.6 200.79 205.17 214.91 110.52 122.28"/><path class="cls-1" d="M205.17,2.8l13,12.73-94.65,92.63,94.65,92.63-13,12.73-94.65-92.64L15.87,213.52l-13-12.73,94.65-92.63L2.86,15.53l13-12.73,94.65,92.63L205.17,2.8m0-2.8-1.4,1.37L110.52,92.63,17.26,1.37,15.87,0l-1.4,1.37L1.46,14.1,0,15.53,1.46,17l93.19,91.2L1.46,199.36,0,200.79l1.46,1.43,13,12.73,1.4,1.36L17.26,215l93.26-91.27L203.77,215l1.4,1.36,1.4-1.36,13-12.73,1.46-1.43-1.46-1.43-93.19-91.2L219.57,17,221,15.53l-1.46-1.43-13-12.73L205.17,0Z"/></g></g></svg>